<?xml version="1.0" encoding="UTF-8" standalone="no"?>
<!DOCTYPE svg PUBLIC "-//W3C//DTD SVG 1.1//EN" "http://www.w3.org/Graphics/SVG/1.1/DTD/svg11.dtd">
<svg width="100%" height="100%" viewBox="0 0 512 512" version="1.1" xmlns="http://www.w3.org/2000/svg" xmlns:xlink="http://www.w3.org/1999/xlink" xml:space="preserve" xmlns:serif="http://www.serif.com/" style="fill-rule:evenodd;clip-rule:evenodd;stroke-linejoin:round;stroke-miterlimit:2;">
    <g transform="matrix(1,0,0,1,-5.53795,35.6871)">
        <g id="path886" transform="matrix(1.4453,0,0,1.4453,-163.937,-151.416)">
            <path d="M176.968,483.073C129.901,488.302 90.768,478.429 86.86,460.339C85.143,452.392 89.19,445.365 99.287,438.765C102.432,436.708 105.137,434.88 105.297,434.702C105.457,434.523 103.688,433.034 101.366,431.393C95.776,427.443 92.445,423.878 90.132,419.372C84.748,408.879 91.501,397.886 106.576,392.603C109.25,391.666 111.409,390.768 111.374,390.608C111.34,390.447 109.805,388.872 107.965,387.108C103.099,382.442 98.419,374.227 98.186,369.941C97.611,359.353 103.646,353.286 117.778,350.244L124.897,348.714L121.499,343.877C116.89,337.317 114.061,325.485 116.048,321.078C119.212,314.06 127.924,309.752 139.054,309.703C142.563,309.686 145.488,309.604 145.553,309.517C145.619,309.43 144.653,307.335 143.407,304.861C135.225,288.618 140.52,274.761 155.454,273.334C159.002,272.995 166.453,273.566 171.156,274.537C172.383,274.791 172.366,273.745 171.04,267.632C169.076,258.573 169.748,251.917 173.083,247.413C176.009,243.462 180.935,240.774 185.475,240.65C189.472,240.54 198.221,242.252 202.025,243.887C203.518,244.529 204.918,245.015 205.137,244.968C205.355,244.921 205.305,242.777 205.024,240.203C204.027,231.043 206.078,223.117 210.714,218.212C212.632,216.183 214.425,215.29 218.201,214.479C224.301,213.172 229.623,214.416 237.495,218.991L243.114,222.257L243.871,215.189C244.678,207.666 247.98,200.302 252.053,196.94C253.261,195.943 256.149,194.717 258.471,194.215C277.632,190.076 303.739,223.895 317.205,270.297C324.971,297.061 324.966,313.047 317.188,314.727C316.117,314.958 315.603,314.004 314.803,310.301C314.242,307.704 313.38,305.53 312.887,305.469C312.322,305.399 312.013,304.005 312.05,301.696C312.14,296.076 307.297,274.834 303.226,262.999C294.851,238.65 281.843,217.36 270.171,208.897C264.385,204.701 261.052,203.917 258.439,206.137C256.161,208.072 254.102,218.208 254.438,225.832C254.719,232.221 254.784,232.407 258.017,236.007C274.862,254.769 291.282,283.752 296.93,304.695C299.68,314.893 299.606,318.26 296.547,321.955C292.218,327.184 285.155,325.185 278.399,316.819C265.297,300.593 251.446,270.414 246.415,247.128L244.39,237.754L238.248,232.905C230.977,227.165 224.008,224.276 220.295,225.462C216.197,226.772 214.984,233.35 216.813,244.354L218.259,253.056L223.376,256.954C246.475,274.55 276.886,314.774 277.253,328.215C277.471,336.185 271.874,339.907 264.183,336.908C251.946,332.136 226.183,298.652 214.373,272.167C212.229,267.361 209.895,262.495 209.185,261.353C206.444,256.949 190.579,250.85 184.998,252.056C181.083,252.902 180.131,257.027 181.931,265.356C184.109,275.44 186.406,279.586 191.385,282.421C209.312,292.627 221.931,301.939 235.976,315.325C243.526,322.521 251.555,331.645 250.531,331.866C250.25,331.927 250.758,332.452 251.66,333.033C253.5,334.219 257.655,341.374 258.338,344.531C259.656,350.631 255.084,355.656 248.673,355.153C241.665,354.603 221.264,339.994 206.814,325.177C200.711,318.919 190.174,305.821 184.795,297.807C179.632,290.115 178.712,289.192 174.489,287.46C165.01,283.573 153.586,283.396 151.198,287.099C149.481,289.764 151.7,297.564 156.456,305.573C159.688,311.016 161.047,312.536 163.296,313.219C170.471,315.397 184.631,321.102 191.803,324.704C208.918,333.298 232.182,349.728 238.78,357.881C239.897,359.262 241.43,362.091 242.186,364.168C243.43,367.586 243.362,368.253 241.475,371.18C237.607,377.18 230.849,376.842 215.922,369.902C197.216,361.204 169.313,340.065 157.806,325.874C155.76,323.35 154.296,322.582 150.211,321.891C141.75,320.46 138.278,320.363 133.166,321.414C129.038,322.263 128.077,322.802 127.045,324.843C124.945,329 128.56,336.204 137.415,345.511C140.316,348.56 141.487,349.109 145.974,349.523C148.833,349.787 157.083,351.458 164.307,353.238C193.004,360.308 221.397,373.792 228.717,383.828C233.638,390.575 230.219,397.229 221.4,398.069C212.993,398.869 190.815,391.912 171.652,382.461C162.424,377.911 152.359,371.751 142.734,364.763C135.614,359.594 135.588,359.585 129.219,359.876C120.674,360.267 112.385,362.654 110.512,365.264C108.706,367.781 109.489,371.628 112.655,375.796C115.276,379.245 124.891,387.18 127.187,387.788C127.985,387.999 132.507,388.025 137.235,387.845C154.741,387.18 185.38,391.992 203.695,398.284C216.508,402.685 224.203,409.198 223.337,414.909C222.852,418.106 218.698,421.76 214.545,422.642C199.122,425.921 157.025,416.221 132.935,403.839C124.549,399.528 121.286,399.404 111.087,403.012C96.687,408.105 95.689,413.509 107.606,421.857C118.022,429.154 119.016,429.334 134.215,426.652C160.891,421.945 193.008,422.827 210.086,428.737C220.663,432.396 223.28,439.785 216.099,445.713C210.957,449.957 189.753,452.096 167.909,450.575C154.144,449.616 137.036,446.376 123.808,442.221L119.801,440.962L112.589,444.18C104.775,447.666 97.418,453.65 97.481,456.467C97.552,459.585 100.782,462.842 106.484,465.545C120.094,471.996 139.963,474.487 165.66,472.961C176.483,472.319 204.071,466.717 208.283,464.307C209.814,463.431 210.799,463.179 210.61,463.712C210.424,464.237 212.098,464.251 214.477,463.744C219.648,462.644 221.422,463.187 221.175,465.795C220.627,471.572 211.194,476.327 192.752,480.122C185.786,481.556 178.683,482.885 176.968,483.075L176.968,483.073ZM201.838,437.722C195.065,435.583 165.67,434.029 154.311,435.211C151.366,435.517 148.135,435.761 147.129,435.752C146.124,435.744 146.837,436.193 148.713,436.751C158.19,439.569 191.443,441.061 201.225,439.107L204.286,438.496L201.838,437.722L201.838,437.722ZM206.693,411.597C205.713,410.579 193.48,406.633 184.201,404.341C173.502,401.699 150.45,398.34 150.692,399.458C150.829,400.095 159.306,402.92 170.541,406.073C177.32,407.976 188.267,410.189 194.868,410.991C208.373,412.633 207.656,412.597 206.693,411.597ZM212.142,384.302C206.534,380.497 196.008,375.429 185.102,371.283C174.598,367.29 162.047,363.479 161.614,364.15C161.47,364.375 163.429,365.623 165.968,366.925C168.508,368.227 171.188,369.656 171.925,370.1C178.875,374.298 197.155,381.873 207.076,384.667C211.454,385.9 215.213,386.885 215.431,386.855C215.648,386.825 214.169,385.677 212.142,384.302ZM224.913,359.523C216.671,351.86 175.091,326.703 179.769,332.21C182.343,335.24 202.277,349.723 209.763,354.001C217.248,358.279 227.456,363.306 228.291,363.125C228.513,363.077 226.992,361.456 224.913,359.523ZM239.973,335.833C232.977,327.174 222.171,316.903 211.699,308.957C208.58,306.591 206.175,304.184 206.356,303.609C206.536,303.034 206.422,302.928 206.103,303.375C205.783,303.821 204.584,303.668 203.44,303.038C198.41,300.263 221.516,324.742 231.513,332.779C237.612,337.683 243.384,341.657 243.699,341.169C243.842,340.948 242.165,338.546 239.973,335.833L239.973,335.833ZM262.874,320.763C260.966,316.376 252.525,303.656 246.624,296.278C240.539,288.669 230.115,276.974 229.531,277.1C228.314,277.363 241.456,298.171 248.036,306.401C252.949,312.545 263.096,323.675 263.672,323.55C263.88,323.505 263.521,322.251 262.874,320.763L262.874,320.763ZM285.686,304.425C283.083,296.79 277.891,285.677 271.892,274.902C266.321,264.895 260.356,256.078 260.786,258.487C261.624,263.187 273.52,289.406 278.692,297.953C282.17,303.699 286.404,309.515 287.015,309.383C287.2,309.343 286.603,307.112 285.686,304.425L285.686,304.425Z" style="fill:white;fill-rule:nonzero;"/>
        </g>
        <g transform="matrix(3.34254,13.0797,-13.0797,3.34254,519.09,-29.513)">
            <path d="M16.61,15.15C16.15,15.15 15.77,14.78 15.77,14.32C15.77,13.86 16.15,13.5 16.61,13.5C17.07,13.5 17.45,13.86 17.45,14.32C17.45,14.78 17.07,15.15 16.61,15.15M7.41,15.15C6.95,15.15 6.57,14.78 6.57,14.32C6.57,13.86 6.95,13.5 7.41,13.5C7.87,13.5 8.24,13.86 8.24,14.32C8.24,14.78 7.87,15.15 7.41,15.15M16.91,10.14L18.58,7.26C18.67,7.09 18.61,6.88 18.45,6.79C18.28,6.69 18.07,6.75 18,6.92L16.29,9.83C14.95,9.22 13.5,8.9 12,8.91C10.47,8.91 9,9.24 7.73,9.82L6.04,6.91C5.95,6.74 5.74,6.68 5.57,6.78C5.4,6.87 5.35,7.08 5.44,7.25L7.1,10.13C4.25,11.69 2.29,14.58 2,18L22,18C21.72,14.59 19.77,11.7 16.91,10.14Z" style="fill:white;fill-rule:nonzero;"/>
        </g>
    </g>
</svg>
